<svg width="721.1" height="364" viewBox="0 0 721.1 364" xmlns="http://www.w3.org/2000/svg" xmlns:xlink="http://www.w3.org/1999/xlink" overflow="hidden"><defs></defs><g><linearGradient x1="530.117" y1="735.055" x2="544.736" y2="735.055" gradientUnits="userSpaceOnUse" id="SVGID_1_" gradientTransform="matrix(4.37114e-08 1 -1 4.37114e-08 880.049 -334.274)"><stop offset="0.0299" stop-color="#4D1F03"/><stop offset="0.3316" stop-color="#7C411E"/><stop offset="1" stop-color="#4D1F03"/></linearGradient><path d="M197.2 195.8C200.7 195.8 203.5 198.6 203.5 202.1L203.5 204.2C203.5 207.7 200.7 210.5 197.2 210.5L92.8 210.5C89.3 210.5 86.5 207.7 86.5 204.2L86.5 202.1C86.5 198.6 89.3 195.8 92.8 195.8L197.2 195.8Z" fill="url(#SVGID_1_)"/><path d="M53.1 320.9C53.1 320.9 61.2 242.2 79.3 241.9 97.4 241.6 105.5 196.5 105.5 196.5L53 196.5 0.5 196.5C0.5 196.5 38.1 235.5 26.7 241.9 15.5 248.3 53.1 320.9 53.1 320.9Z" stroke="#000000" stroke-width="0.5221" stroke-miterlimit="10" fill="#FFFFFF"/></g><g><linearGradient x1="598.504" y1="963.967" x2="614.407" y2="963.967" gradientUnits="userSpaceOnUse" id="SVGID_2_" gradientTransform="matrix(-4.37114e-08 1 1 4.37114e-08 -396.113 -402.661)"><stop offset="0.0299" stop-color="#4D1F03"/><stop offset="0.3316" stop-color="#7C411E"/><stop offset="1" stop-color="#4D1F03"/></linearGradient><linearGradient x1="598.504" y1="1060.09" x2="733.945" y2="1060.09" gradientUnits="userSpaceOnUse" id="SVGID_3_" gradientTransform="matrix(-4.37114e-08 1 1 4.37114e-08 -396.113 -402.661)"><stop offset="0.0299" stop-color="#110B79"/><stop offset="0.3316" stop-color="#2E58A6"/><stop offset="1" stop-color="#110B79"/></linearGradient><path d="M511.1 195.8C507.3 195.8 504.3 198.9 504.3 202.6L504.3 204.9C504.3 208.7 507.4 211.7 511.1 211.7L624.7 211.7C628.5 211.7 631.5 208.6 631.5 204.9L631.5 202.6C631.5 198.8 628.4 195.8 624.7 195.8L511.1 195.8 511.1 195.8Z" fill="url(#SVGID_2_)"/><path d="M664 331.3C664 331.3 655.2 245.6 635.4 245.3 615.7 245 606.9 195.9 606.9 195.9L664 195.9 721.1 195.9C721.1 195.9 680.2 238.3 692.6 245.3 704.9 252.3 664 331.3 664 331.3Z" fill="url(#SVGID_3_)"/></g><g><path d="M253.9 143.1C253.9 143.1 113.9 226.6 249.4 213.1 249.4 213.1 301.4 143.1 253.9 143.1" fill="#323C4F"/><path d="M251.3 154.3C251.3 154.3 138.2 221.8 247.7 210.8 247.6 210.9 289.6 154.3 251.3 154.3" fill="#F2F2F2"/><path d="M455.2 143.1C455.2 143.1 595.2 226.6 459.7 213.1 459.7 213.1 407.7 143.1 455.2 143.1" fill="#323C4F"/><path d="M457.8 154.3C457.8 154.3 570.9 221.8 461.4 210.8 461.5 210.9 419.5 154.3 457.8 154.3" fill="#F2F2F2"/><path d="M302.7 311.1 271.5 339.8C271.5 339.8 264.6 351.3 284.8 346.7 284.8 346.7 300.4 341.6 303.5 350.3 303.5 350.3 306.3 365.4 317.1 352.3 317.1 352.3 322.7 347.2 327.3 356.7 327.3 356.7 340.9 372.8 338.6 357.5L327.6 315.8C327.5 315.7 315.7 298 302.7 311.1" fill="#E8B34C"/><path d="M406.4 311.1 437.6 339.8C437.6 339.8 444.5 351.3 424.3 346.7 424.3 346.7 408.7 341.6 405.6 350.3 405.6 350.3 402.8 365.4 392 352.3 392 352.3 386.4 347.2 381.8 356.7 381.8 356.7 368.2 372.8 370.5 357.5L381.5 315.8C381.6 315.7 393.3 298 406.4 311.1" fill="#E8B34C"/><path d="M354.6 330.9C194.7 335.9 251 149.6 251 149.6 260.2-24.3 354.6 1.3 354.6 1.3 354.6 1.3 449-24.3 458.1 149.6 458.1 149.6 514.4 335.9 354.6 330.9" fill="#323C4F"/><path d="M354.6 324.1C228 327.4 272.6 201.8 272.6 201.8 279.8 84.5 354.6 101.8 354.6 101.8 354.6 101.8 429.3 84.5 436.5 201.8 436.5 201.8 481.1 327.5 354.6 324.1" fill="#F2F2F2"/><path d="M349.9 87.5C349.9 116.3 333.1 139.6 312.4 139.6 291.7 139.6 274.9 116.3 274.9 87.5 274.9 58.7 291.7 35.4 312.4 35.4 333.1 35.3 349.9 58.7 349.9 87.5" fill="#F2F2F2"/><path d="M434.2 87.5C434.2 116.3 417.4 139.6 396.7 139.6 376 139.6 359.2 116.3 359.2 87.5 359.2 58.7 376 35.4 396.7 35.4 417.4 35.4 434.2 58.7 434.2 87.5" fill="#F2F2F2"/><path d="M374.2 111.8 357.1 128.9C355.7 130.3 353.4 130.3 352 128.9L334.9 111.8C333.5 110.4 333.5 108.1 334.9 106.7L352 89.5C353.4 88.1 355.7 88.1 357.1 89.5L374.2 106.6C375.6 108.1 375.6 110.4 374.2 111.8" fill="#E6A84E"/><path d="M325 77.2C325 84.7 318.9 90.8 311.4 90.8 303.9 90.8 297.8 84.7 297.8 77.2 297.8 69.7 303.9 63.6 311.4 63.6 318.9 63.6 325 69.7 325 77.2" fill="#3A3937"/><path d="M320.4 72.7C320.4 75 318.6 76.8 316.3 76.8 314 76.8 312.2 75 312.2 72.7 312.2 70.4 314 68.6 316.3 68.6 318.6 68.6 320.4 70.4 320.4 72.7" fill="#FFFFFF"/><path d="M411.3 77.2C411.3 84.7 405.2 90.8 397.7 90.8 390.2 90.8 384.1 84.7 384.1 77.2 384.1 69.7 390.2 63.6 397.7 63.6 405.2 63.6 411.3 69.7 411.3 77.2" fill="#3A3937"/><path d="M406.8 72.7C406.8 75 405 76.8 402.7 76.8 400.4 76.8 398.6 75 398.6 72.7 398.6 70.4 400.4 68.6 402.7 68.6 405 68.6 406.8 70.4 406.8 72.7" fill="#FFFFFF"/></g></svg>