<svg version="1.1" id="Layer_1" xmlns="http://www.w3.org/2000/svg" xmlns:xlink="http://www.w3.org/1999/xlink" x="0px" y="0px"
	 width="800px" height="800px" viewBox="0 0 800 800" enable-background="new 0 0 800 800" xml:space="preserve">
<g>
	
		<linearGradient id="SVGID_1_" gradientUnits="userSpaceOnUse" x1="576.2754" y1="-144.0537" x2="590.8936" y2="-144.0537" gradientTransform="matrix(4.371139e-08 1 1 -4.371139e-08 335.2065 -169.4341)">
		<stop  offset="0.0299" style="stop-color:#4D1F03"/>
		<stop  offset="0.3316" style="stop-color:#7C411E"/>
		<stop  offset="1" style="stop-color:#4D1F03"/>
	</linearGradient>
	<path fill="url(#SVGID_1_)" d="M243.361,406.842c3.46,0,6.266,2.806,6.266,6.266v2.088c0.001,3.459-2.807,6.265-6.266,6.265
		H138.946c-3.459-0.001-6.268-2.804-6.268-6.265l0.001-2.088c-0.001-3.462,2.808-6.268,6.268-6.266H243.361z"/>
	<path fill="#FFFFFF" stroke="#000000" stroke-width="0.5221" stroke-miterlimit="10" d="M99.257,531.857
		c0,0,8.095-78.728,26.243-79.043c18.146-0.312,26.239-45.448,26.239-45.448l-52.482-0.002l-52.484,0.002
		c0,0,37.583,38.976,26.242,45.449C61.679,459.289,99.257,531.857,99.257,531.857z"/>
</g>
<g>
	
		<linearGradient id="SVGID_2_" gradientUnits="userSpaceOnUse" x1="644.6631" y1="-150.9648" x2="660.5674" y2="-150.9648" gradientTransform="matrix(-4.371139e-08 1 -1 -4.371139e-08 463.0464 -237.8208)">
		<stop  offset="0.0299" style="stop-color:#4D1F03"/>
		<stop  offset="0.3316" style="stop-color:#7C411E"/>
		<stop  offset="1" style="stop-color:#4D1F03"/>
	</linearGradient>
	<path fill="url(#SVGID_2_)" d="M557.213,406.842c-3.764,0.002-6.814,3.055-6.814,6.818v2.271c0,3.762,3.053,6.814,6.814,6.814
		h113.596c3.766,0,6.816-3.051,6.816-6.812v-2.275c-0.002-3.764-3.053-6.816-6.816-6.816H557.213z"/>
	
		<linearGradient id="SVGID_3_" gradientUnits="userSpaceOnUse" x1="644.6631" y1="-247.0908" x2="780.1045" y2="-247.0908" gradientTransform="matrix(-4.371139e-08 1 -1 -4.371139e-08 463.0464 -237.8208)">
		<stop  offset="0.0299" style="stop-color:#110B79"/>
		<stop  offset="0.3316" style="stop-color:#2E58A6"/>
		<stop  offset="1" style="stop-color:#110B79"/>
	</linearGradient>
	<path fill="url(#SVGID_3_)" d="M710.139,542.283c0,0-8.809-85.652-28.551-85.994c-19.74-0.34-28.547-49.445-28.547-49.445
		l57.096-0.002l57.098,0.002c0,0-40.883,42.404-28.547,49.447C751.021,463.332,710.139,542.283,710.139,542.283z"/>
</g>
<g>
	<path fill="#323C4F" d="M300.101,354.14c0,0-139.985,83.539-4.517,69.99C295.583,424.13,347.514,354.14,300.101,354.14"/>
	<path fill="#F2F2F2" d="M297.435,365.336c0,0-113.06,67.472-3.648,56.53C293.786,421.866,335.729,365.336,297.435,365.336"/>
	<path fill="#323C4F" d="M501.311,354.14c0,0,139.984,83.539,4.518,69.99C505.828,424.13,453.898,354.14,501.311,354.14"/>
	<path fill="#F2F2F2" d="M503.978,365.336c0,0,113.059,67.472,3.646,56.53C507.623,421.866,465.682,365.336,503.978,365.336"/>
	<path fill="#E8B34C" d="M348.845,522.058l-31.236,28.675c0,0-6.913,11.521,13.314,6.913c0,0,15.618-5.122,18.69,3.584
		c0,0,2.817,15.107,13.57,2.048c0,0,5.633-5.119,10.243,4.354c0,0,13.57,16.129,11.265,0.769l-11.01-41.734
		C373.681,526.665,361.903,508.998,348.845,522.058"/>
	<path fill="#E8B34C" d="M452.565,522.058l31.237,28.675c0,0,6.913,11.521-13.315,6.913c0,0-15.618-5.122-18.689,3.584
		c0,0-2.819,15.107-13.568,2.048c0,0-5.634-5.119-10.244,4.354c0,0-13.569,16.129-11.266,0.769l11.011-41.734
		C427.73,526.665,439.508,508.998,452.565,522.058"/>
	<path fill="#323C4F" d="M400.729,541.927c-159.83,4.969-103.539-181.344-103.539-181.344
		c9.142-173.89,103.539-148.255,103.539-148.255s94.396-25.635,103.488,148.255C504.217,360.583,560.512,546.896,400.729,541.927"/>
	<path fill="#F2F2F2" d="M400.724,535.128c-126.562,3.35-81.989-122.315-81.989-122.315c7.24-117.286,81.989-99.996,81.989-99.996
		s74.748-17.29,81.949,99.996C482.673,412.812,527.247,538.478,400.724,535.128"/>
	<path fill="#F2F2F2" d="M396.064,298.463c0,28.784-16.783,52.115-37.487,52.115c-20.702,0-37.488-23.332-37.488-52.115
		c0-28.785,16.786-52.116,37.488-52.116C379.282,246.348,396.064,269.679,396.064,298.463"/>
	<path fill="#F2F2F2" d="M480.321,298.463c0,28.784-16.786,52.115-37.49,52.115s-37.485-23.332-37.485-52.115
		c0-28.785,16.781-52.116,37.485-52.116S480.321,269.679,480.321,298.463"/>
	<path fill="#E6A84E" d="M420.383,322.772l-17.114,17.114c-1.414,1.415-3.711,1.415-5.127,0l-17.111-17.114
		c-1.416-1.414-1.416-3.709,0-5.124l17.111-17.114c1.416-1.414,3.713-1.414,5.127,0l17.114,17.114
		C421.799,319.062,421.799,321.358,420.383,322.772"/>
	<path fill="#3A3937" d="M371.119,288.204c0,7.496-6.078,13.574-13.575,13.574c-7.498,0-13.576-6.078-13.576-13.574
		c0-7.499,6.078-13.575,13.576-13.575C365.041,274.629,371.119,280.706,371.119,288.204"/>
	<path fill="#FFFFFF" d="M366.59,283.702c0,2.258-1.833,4.09-4.092,4.09c-2.257,0-4.089-1.832-4.089-4.09
		c0-2.261,1.833-4.092,4.089-4.092C364.757,279.61,366.59,281.441,366.59,283.702"/>
	<path fill="#3A3937" d="M457.441,288.204c0,7.496-6.078,13.574-13.575,13.574c-7.496,0-13.574-6.078-13.574-13.574
		c0-7.499,6.078-13.575,13.574-13.575C451.363,274.629,457.441,280.706,457.441,288.204"/>
	<path fill="#FFFFFF" d="M452.915,283.702c0,2.258-1.834,4.09-4.093,4.09s-4.09-1.832-4.09-4.09c0-2.261,1.831-4.092,4.09-4.092
		S452.915,281.441,452.915,283.702"/>
</g>
</svg>
