<svg width="653" height="388.5" viewBox="0 0 653 388.5" xmlns="http://www.w3.org/2000/svg" xmlns:xlink="http://www.w3.org/1999/xlink" overflow="hidden"><defs></defs><g><linearGradient x1="606.245" y1="833.905" x2="620.865" y2="833.905" gradientUnits="userSpaceOnUse" id="SVGID_1_" gradientTransform="matrix(0.7071 0.7071 -0.7071 0.7071 263.319 -783.736)"><stop offset="0.0299" stop-color="#4D1F03"/><stop offset="0.3316" stop-color="#7C411E"/><stop offset="1" stop-color="#4D1F03"/></linearGradient><path d="M139.3 197.7C141.7 195.3 145.7 195.3 148.2 197.7L149.7 199.2C152.1 201.6 152.1 205.6 149.7 208.1L75.9 281.9C73.5 284.3 69.5 284.3 67 281.9L65.5 280.4C63.1 278 63.1 274 65.5 271.5L139.3 197.7Z" fill="url(#SVGID_1_)"/><path d="M125.8 388C125.8 388 75.9 326.6 88.5 313.6 101.1 300.5 74.9 262.9 74.9 262.9L37.8 300 0.6 337.1C0.6 337.1 54.7 338.1 51.3 350.7 47.9 363.2 125.8 388 125.8 388Z" stroke="#000000" stroke-width="0.5221" stroke-miterlimit="10" fill="#FFFFFF"/></g><g><linearGradient x1="534.087" y1="923.638" x2="549.993" y2="923.638" gradientUnits="userSpaceOnUse" id="SVGID_2_" gradientTransform="matrix(0.7071 0.7071 0.7071 -0.7071 -541.541 432.869)"><stop offset="0.0299" stop-color="#4D1F03"/><stop offset="0.3316" stop-color="#7C411E"/><stop offset="1" stop-color="#4D1F03"/></linearGradient><linearGradient x1="534.088" y1="1019.76" x2="669.53" y2="1019.76" gradientUnits="userSpaceOnUse" id="SVGID_3_" gradientTransform="matrix(0.7071 0.7071 0.7071 -0.7071 -541.541 432.869)"><stop offset="0.0299" stop-color="#110B79"/><stop offset="0.3316" stop-color="#2E58A6"/><stop offset="1" stop-color="#110B79"/></linearGradient><path d="M449.1 197.6C446.4 200.3 446.4 204.6 449.1 207.2L450.7 208.8C453.4 211.5 457.7 211.5 460.3 208.8L540.6 128.5C543.3 125.8 543.3 121.5 540.6 118.9L539 117.3C536.3 114.6 532 114.6 529.4 117.3L449.1 197.6Z" fill="url(#SVGID_2_)"/><path d="M653 185.2C653 185.2 586.2 130.9 572 144.6 557.8 158.3 516.9 129.8 516.9 129.8L557.3 89.4 597.7 49C597.7 49 598.8 107.9 612.5 104.1 626 100.5 653 185.2 653 185.2Z" fill="url(#SVGID_3_)"/></g><g><path d="M200.1 143.1C200.1 143.1 60.1 226.6 195.6 213.1 195.6 213.1 247.5 143.1 200.1 143.1" fill="#323C4F"/><path d="M197.4 154.3C197.4 154.3 84.3 221.8 193.8 210.8 193.8 210.9 235.7 154.3 197.4 154.3" fill="#F2F2F2"/><path d="M401.3 143.1C401.3 143.1 541.3 226.6 405.8 213.1 405.8 213.1 353.9 143.1 401.3 143.1" fill="#323C4F"/><path d="M403.9 154.3C403.9 154.3 517 221.8 407.5 210.8 407.6 210.9 365.6 154.3 403.9 154.3" fill="#F2F2F2"/><path d="M248.8 311.1 217.6 339.8C217.6 339.8 210.7 351.3 230.9 346.7 230.9 346.7 246.5 341.6 249.6 350.3 249.6 350.3 252.4 365.4 263.2 352.3 263.2 352.3 268.8 347.2 273.4 356.7 273.4 356.7 287 372.8 284.7 357.5L273.7 315.8C273.6 315.7 261.9 298 248.8 311.1" fill="#E8B34C"/><path d="M352.5 311.1 383.7 339.8C383.7 339.8 390.6 351.3 370.4 346.7 370.4 346.7 354.8 341.6 351.7 350.3 351.7 350.3 348.9 365.4 338.1 352.3 338.1 352.3 332.5 347.2 327.9 356.7 327.9 356.7 314.3 372.8 316.6 357.5L327.6 315.8C327.7 315.7 339.5 298 352.5 311.1" fill="#E8B34C"/><path d="M300.7 330.9C140.9 335.9 197.2 149.6 197.2 149.6 206.3-24.3 300.7 1.3 300.7 1.3 300.7 1.3 395.1-24.3 404.2 149.6 404.2 149.6 460.5 335.9 300.7 330.9" fill="#323C4F"/><path d="M300.7 324.1C174.1 327.4 218.7 201.8 218.7 201.8 225.9 84.5 300.7 101.8 300.7 101.8 300.7 101.8 375.4 84.5 382.6 201.8 382.6 201.8 427.2 327.5 300.7 324.1" fill="#F2F2F2"/><path d="M296 87.5C296 116.3 279.2 139.6 258.5 139.6 237.8 139.6 221 116.3 221 87.5 221 58.7 237.8 35.4 258.5 35.4 279.3 35.3 296 58.7 296 87.5" fill="#F2F2F2"/><path d="M380.3 87.5C380.3 116.3 363.5 139.6 342.8 139.6 322.1 139.6 305.3 116.3 305.3 87.5 305.3 58.7 322.1 35.4 342.8 35.4 363.5 35.4 380.3 58.7 380.3 87.5" fill="#F2F2F2"/><path d="M320.4 111.8 303.3 128.9C301.9 130.3 299.6 130.3 298.2 128.9L281 111.8C279.6 110.4 279.6 108.1 281 106.7L298.1 89.6C299.5 88.2 301.8 88.2 303.2 89.6L320.3 106.7C321.8 108.1 321.8 110.4 320.4 111.8" fill="#E6A84E"/><path d="M271.1 77.2C271.1 84.7 265 90.8 257.5 90.8 250 90.8 243.9 84.7 243.9 77.2 243.9 69.7 250 63.6 257.5 63.6 265 63.6 271.1 69.7 271.1 77.2" fill="#3A3937"/><path d="M266.6 72.7C266.6 75 264.8 76.8 262.5 76.8 260.2 76.8 258.4 75 258.4 72.7 258.4 70.4 260.2 68.6 262.5 68.6 264.7 68.6 266.6 70.4 266.6 72.7" fill="#FFFFFF"/><path d="M357.4 77.2C357.4 84.7 351.3 90.8 343.8 90.8 336.3 90.8 330.2 84.7 330.2 77.2 330.2 69.7 336.3 63.6 343.8 63.6 351.3 63.6 357.4 69.7 357.4 77.2" fill="#3A3937"/><path d="M352.9 72.7C352.9 75 351.1 76.8 348.8 76.8 346.5 76.8 344.7 75 344.7 72.7 344.7 70.4 346.5 68.6 348.8 68.6 351.1 68.6 352.9 70.4 352.9 72.7" fill="#FFFFFF"/></g></svg>