<svg version="1.1" id="Layer_1" xmlns="http://www.w3.org/2000/svg" xmlns:xlink="http://www.w3.org/1999/xlink" x="0px" y="0px"
	 width="800px" height="800px" viewBox="0 0 800 800" enable-background="new 0 0 800 800" xml:space="preserve">
<g>
	
		<linearGradient id="SVGID_1_" gradientUnits="userSpaceOnUse" x1="523.1953" y1="-207.8799" x2="537.8164" y2="-207.8799" gradientTransform="matrix(-0.7071 0.7071 0.7071 0.7071 732.1221 149.8955)">
		<stop  offset="0.0299" style="stop-color:#4D1F03"/>
		<stop  offset="0.3316" style="stop-color:#7C411E"/>
		<stop  offset="1" style="stop-color:#4D1F03"/>
	</linearGradient>
	<path fill="url(#SVGID_1_)" d="M252.089,409.777c2.446,2.446,2.446,6.414,0,8.861l-1.477,1.476c-2.445,2.447-6.414,2.445-8.86,0
		l-73.833-73.837c-2.445-2.446-2.449-6.414-0.002-8.861l1.477-1.476c2.447-2.449,6.417-2.447,8.862,0.001L252.089,409.777z"/>
	<path fill="#FFFFFF" stroke="#000000" stroke-width="0.5221" stroke-miterlimit="10" d="M61.792,396.275
		c0,0,61.393-49.945,74.449-37.335c13.052,12.609,50.69-13.583,50.69-13.583l-37.109-37.112l-37.114-37.111
		c0,0-0.984,54.135-13.581,50.693C86.534,318.391,61.792,396.275,61.792,396.275z"/>
</g>
<g>
	
		<linearGradient id="SVGID_2_" gradientUnits="userSpaceOnUse" x1="730.7734" y1="-132.4263" x2="746.6777" y2="-132.4263" gradientTransform="matrix(-0.7071 0.7071 -0.7071 -0.7071 1024.1162 -167.5986)">
		<stop  offset="0.0299" style="stop-color:#4D1F03"/>
		<stop  offset="0.3316" style="stop-color:#7C411E"/>
		<stop  offset="1" style="stop-color:#4D1F03"/>
	</linearGradient>
	<path fill="url(#SVGID_2_)" d="M560.857,402.613c-2.662-2.66-6.979-2.658-9.64,0.003l-1.606,1.606c-2.66,2.66-2.66,6.977,0,9.637
		l80.324,80.324c2.663,2.663,6.978,2.663,9.638,0.003l1.608-1.609c2.66-2.662,2.661-6.979,0-9.64L560.857,402.613z"/>
	
		<linearGradient id="SVGID_3_" gradientUnits="userSpaceOnUse" x1="730.7734" y1="-228.5518" x2="866.2148" y2="-228.5518" gradientTransform="matrix(-0.7071 0.7071 -0.7071 -0.7071 1024.1162 -167.5986)">
		<stop  offset="0.0299" style="stop-color:#110B79"/>
		<stop  offset="0.3316" style="stop-color:#2E58A6"/>
		<stop  offset="1" style="stop-color:#110B79"/>
	</linearGradient>
	<path fill="url(#SVGID_3_)" d="M573.221,606.52c0,0,54.337-66.794,40.619-80.995c-13.719-14.199,14.777-55.149,14.777-55.149
		l40.374,40.372l40.372,40.375c0,0-58.893,1.076-55.149,14.779C657.956,579.602,573.221,606.52,573.221,606.52z"/>
</g>
<g>
	<path fill="#323C4F" d="M300.101,354.14c0,0-139.985,83.539-4.517,69.99C295.583,424.13,347.514,354.14,300.101,354.14"/>
	<path fill="#F2F2F2" d="M297.435,365.336c0,0-113.06,67.472-3.648,56.53C293.786,421.866,335.729,365.336,297.435,365.336"/>
	<path fill="#323C4F" d="M501.311,354.14c0,0,139.984,83.539,4.518,69.99C505.828,424.13,453.898,354.14,501.311,354.14"/>
	<path fill="#F2F2F2" d="M503.978,365.336c0,0,113.059,67.472,3.646,56.53C507.623,421.866,465.682,365.336,503.978,365.336"/>
	<path fill="#E8B34C" d="M348.845,522.058l-31.236,28.675c0,0-6.913,11.521,13.314,6.913c0,0,15.618-5.122,18.69,3.584
		c0,0,2.817,15.107,13.57,2.048c0,0,5.633-5.119,10.243,4.354c0,0,13.57,16.129,11.265,0.769l-11.01-41.734
		C373.681,526.665,361.903,508.998,348.845,522.058"/>
	<path fill="#E8B34C" d="M452.565,522.058l31.237,28.675c0,0,6.913,11.521-13.315,6.913c0,0-15.618-5.122-18.689,3.584
		c0,0-2.819,15.107-13.568,2.048c0,0-5.634-5.119-10.244,4.354c0,0-13.569,16.129-11.266,0.769l11.011-41.734
		C427.73,526.665,439.508,508.998,452.565,522.058"/>
	<path fill="#323C4F" d="M400.729,541.927c-159.83,4.969-103.539-181.344-103.539-181.344
		c9.142-173.89,103.539-148.255,103.539-148.255s94.396-25.635,103.488,148.255C504.217,360.583,560.512,546.896,400.729,541.927"/>
	<path fill="#F2F2F2" d="M400.724,535.128c-126.562,3.35-81.989-122.315-81.989-122.315c7.24-117.286,81.989-99.996,81.989-99.996
		s74.748-17.29,81.949,99.996C482.673,412.812,527.247,538.478,400.724,535.128"/>
	<path fill="#F2F2F2" d="M396.064,298.463c0,28.784-16.783,52.115-37.487,52.115c-20.702,0-37.488-23.332-37.488-52.115
		c0-28.785,16.786-52.116,37.488-52.116C379.282,246.348,396.064,269.679,396.064,298.463"/>
	<path fill="#F2F2F2" d="M480.321,298.463c0,28.784-16.786,52.115-37.49,52.115s-37.485-23.332-37.485-52.115
		c0-28.785,16.781-52.116,37.485-52.116S480.321,269.679,480.321,298.463"/>
	<path fill="#E6A84E" d="M420.383,322.772l-17.114,17.114c-1.414,1.415-3.711,1.415-5.127,0l-17.111-17.114
		c-1.416-1.414-1.416-3.709,0-5.124l17.111-17.114c1.416-1.414,3.713-1.414,5.127,0l17.114,17.114
		C421.799,319.062,421.799,321.358,420.383,322.772"/>
	<path fill="#3A3937" d="M371.119,288.204c0,7.496-6.078,13.574-13.575,13.574c-7.498,0-13.576-6.078-13.576-13.574
		c0-7.499,6.078-13.575,13.576-13.575C365.041,274.629,371.119,280.706,371.119,288.204"/>
	<path fill="#FFFFFF" d="M366.59,283.702c0,2.258-1.833,4.09-4.092,4.09c-2.257,0-4.089-1.832-4.089-4.09
		c0-2.261,1.833-4.092,4.089-4.092C364.757,279.61,366.59,281.441,366.59,283.702"/>
	<path fill="#3A3937" d="M457.441,288.204c0,7.496-6.078,13.574-13.575,13.574c-7.496,0-13.574-6.078-13.574-13.574
		c0-7.499,6.078-13.575,13.574-13.575C451.363,274.629,457.441,280.706,457.441,288.204"/>
	<path fill="#FFFFFF" d="M452.915,283.702c0,2.258-1.834,4.09-4.093,4.09s-4.09-1.832-4.09-4.09c0-2.261,1.831-4.092,4.09-4.092
		S452.915,281.441,452.915,283.702"/>
</g>
</svg>
