<svg width="648.1" height="395.5" viewBox="0 0 648.1 395.5" xmlns="http://www.w3.org/2000/svg" xmlns:xlink="http://www.w3.org/1999/xlink" overflow="hidden"><defs></defs><g><linearGradient x1="350.923" y1="752.904" x2="365.544" y2="752.904" gradientUnits="userSpaceOnUse" id="SVGID_1_" gradientTransform="matrix(-0.7071 0.7071 -0.7071 -0.7071 934.41 446.1)"><stop offset="0.0299" stop-color="#4D1F03"/><stop offset="0.3316" stop-color="#7C411E"/><stop offset="1" stop-color="#4D1F03"/></linearGradient><path d="M190.8 198.8C193.2 201.2 193.2 205.2 190.8 207.7L189.3 209.2C186.9 211.6 182.9 211.6 180.4 209.2L106.6 135.4C104.2 133 104.2 129 106.6 126.5L108.1 125C110.5 122.6 114.5 122.6 117 125L190.8 198.8Z" fill="url(#SVGID_1_)"/><path d="M0.5 185.3C0.5 185.3 61.9 135.4 74.9 148 88 160.6 125.6 134.4 125.6 134.4L88.5 97.2 51.4 60.1C51.4 60.1 50.4 114.2 37.8 110.8 25.3 107.4 0.5 185.3 0.5 185.3Z" stroke="#000000" stroke-width="0.5221" stroke-miterlimit="10" fill="#FFFFFF"/></g><g><linearGradient x1="558.503" y1="991.407" x2="574.407" y2="991.407" gradientUnits="userSpaceOnUse" id="SVGID_2_" gradientTransform="matrix(-0.7071 0.7071 0.7071 0.7071 233.635 -864.164)"><stop offset="0.0299" stop-color="#4D1F03"/><stop offset="0.3316" stop-color="#7C411E"/><stop offset="1" stop-color="#4D1F03"/></linearGradient><linearGradient x1="558.504" y1="1087.54" x2="693.945" y2="1087.54" gradientUnits="userSpaceOnUse" id="SVGID_3_" gradientTransform="matrix(-0.7071 0.7071 0.7071 0.7071 233.635 -864.164)"><stop offset="0.0299" stop-color="#110B79"/><stop offset="0.3316" stop-color="#2E58A6"/><stop offset="1" stop-color="#110B79"/></linearGradient><path d="M499.6 191.6C496.9 188.9 492.6 188.9 490 191.6L488.4 193.2C485.7 195.9 485.7 200.2 488.4 202.8L568.7 283.1C571.4 285.8 575.7 285.8 578.3 283.1L579.9 281.5C582.6 278.8 582.6 274.5 579.9 271.9L499.6 191.6Z" fill="url(#SVGID_2_)"/><path d="M511.9 395.5C511.9 395.5 566.2 328.7 552.5 314.5 538.8 300.3 567.3 259.4 567.3 259.4L607.7 299.8 648.1 340.2C648.1 340.2 589.2 341.3 593 355 596.7 368.6 511.9 395.5 511.9 395.5Z" fill="url(#SVGID_3_)"/></g><g><path d="M238.8 143.1C238.8 143.1 98.8 226.6 234.3 213.1 234.3 213.1 286.2 143.1 238.8 143.1" fill="#323C4F"/><path d="M236.2 154.3C236.2 154.3 123.1 221.8 232.6 210.8 232.5 210.9 274.5 154.3 236.2 154.3" fill="#F2F2F2"/><path d="M440 143.1C440 143.1 580 226.6 444.5 213.1 444.5 213.1 392.6 143.1 440 143.1" fill="#323C4F"/><path d="M442.7 154.3C442.7 154.3 555.8 221.8 446.3 210.8 446.3 210.9 404.4 154.3 442.7 154.3" fill="#F2F2F2"/><path d="M287.6 311.1 256.4 339.8C256.4 339.8 249.5 351.3 269.7 346.7 269.7 346.7 285.3 341.6 288.4 350.3 288.4 350.3 291.2 365.4 302 352.3 302 352.3 307.6 347.2 312.2 356.7 312.2 356.7 325.8 372.8 323.5 357.5L312.5 315.8C312.4 315.7 300.6 298 287.6 311.1" fill="#E8B34C"/><path d="M391.3 311.1 422.5 339.8C422.5 339.8 429.4 351.3 409.2 346.7 409.2 346.7 393.6 341.6 390.5 350.3 390.5 350.3 387.7 365.4 376.9 352.3 376.9 352.3 371.3 347.2 366.7 356.7 366.7 356.7 353.1 372.8 355.4 357.5L366.4 315.8C366.5 315.7 378.2 298 391.3 311.1" fill="#E8B34C"/><path d="M339.5 330.9C179.7 335.9 236 149.6 236 149.6 245.1-24.3 339.5 1.3 339.5 1.3 339.5 1.3 433.9-24.3 443 149.6 442.9 149.6 499.2 335.9 339.5 330.9" fill="#323C4F"/><path d="M339.4 324.1C212.8 327.4 257.4 201.8 257.4 201.8 264.6 84.5 339.4 101.8 339.4 101.8 339.4 101.8 414.1 84.5 421.3 201.8 421.4 201.8 466 327.5 339.4 324.1" fill="#F2F2F2"/><path d="M334.8 87.5C334.8 116.3 318 139.6 297.3 139.6 276.6 139.6 259.8 116.3 259.8 87.5 259.8 58.7 276.6 35.4 297.3 35.4 318 35.3 334.8 58.7 334.8 87.5" fill="#F2F2F2"/><path d="M419 87.5C419 116.3 402.2 139.6 381.5 139.6 360.8 139.6 344 116.3 344 87.5 344 58.7 360.8 35.4 381.5 35.4 402.2 35.4 419 58.7 419 87.5" fill="#F2F2F2"/><path d="M359.1 111.8 342 128.9C340.6 130.3 338.3 130.3 336.9 128.9L319.8 111.8C318.4 110.4 318.4 108.1 319.8 106.7L336.9 89.6C338.3 88.2 340.6 88.2 342 89.6L359.1 106.7C360.5 108.1 360.5 110.4 359.1 111.8" fill="#E6A84E"/><path d="M309.8 77.2C309.8 84.7 303.7 90.8 296.2 90.8 288.7 90.8 282.6 84.7 282.6 77.2 282.6 69.7 288.7 63.6 296.2 63.6 303.8 63.6 309.8 69.7 309.8 77.2" fill="#3A3937"/><path d="M305.3 72.7C305.3 75 303.5 76.8 301.2 76.8 298.9 76.8 297.1 75 297.1 72.7 297.1 70.4 298.9 68.6 301.2 68.6 303.5 68.6 305.3 70.4 305.3 72.7" fill="#FFFFFF"/><path d="M396.2 77.2C396.2 84.7 390.1 90.8 382.6 90.8 375.1 90.8 369 84.7 369 77.2 369 69.7 375.1 63.6 382.6 63.6 390.1 63.6 396.2 69.7 396.2 77.2" fill="#3A3937"/><path d="M391.6 72.7C391.6 75 389.8 76.8 387.5 76.8 385.2 76.8 383.4 75 383.4 72.7 383.4 70.4 385.2 68.6 387.5 68.6 389.8 68.6 391.6 70.4 391.6 72.7" fill="#FFFFFF"/></g></svg>